PathFileType	3	(X/Y/Z)	D:\minhoCalibration\240510\subject1_KPNP\preferred\preferred12.trc
DataRate	CameraRate	NumFrames	NumMarkers	Units	OrigDataRate	OrigDataStartFrame	OrigNumFrames
200.0	200.0	36	10	mm	200.0	528	280	
Frame#	Time	Left_Ankle_Outer1			Left_Ankle_Inner1			Left_Knee_Outer1			Left_Knee_Inner1			Left_Wrist1			Right_Wrist1			Right_Knee_Inner1			Right_Knee_Outer1			Right_Ankle_Inner1			Right_Ankle_Outer1			
		X1	Y1	Z1	X2	Y2	Z2	X3	Y3	Z3	X4	Y4	Z4	X5	Y5	Z5	X6	Y6	Z6	X7	Y7	Z7	X8	Y8	Z8	X9	Y9	Z9	X10	Y10	Z10	
528	2.63	-512.4903	92.744545	-565.34296	-558.21021	102.69976	-531.54401	-411.39185	526.99438	-452.14282	-519.89185	506.29218	-458.25104	-364.07617	997.53906	-494.70007	-705.89276	1029.2181	-572.38116	-693.7547	589.10638	-373.86325	-787.57507	613.9776	-430.69022	-719.73102	174.26472	-539.58954	-829.27588	168.40822	-558.24725
529	2.635	-512.19604	92.861946	-565.85901	-558.1344	102.55849	-531.81409	-411.88022	527.26337	-453.58466	-520.34741	506.53757	-459.75269	-365.75537	998.03625	-494.36041	-706.66388	1029.4253	-574.37555	-695.23273	588.74384	-376.22083	-788.91003	613.81854	-433.44318	-717.99084	175.79056	-547.39209	-827.508	169.79451	-566.66077
530	2.64	-512.22375	92.527451	-565.65277	-558.06659	102.48302	-532.12415	-412.33963	527.47266	-454.95645	-520.74054	506.69168	-461.09393	-367.0257	998.38318	-494.41211	-707.43164	1029.5691	-576.32312	-696.66882	588.31934	-378.62543	-790.52795	613.70544	-436.48831	-716.31787	177.17699	-555.29364	-825.70557	171.05597	-575.05103
531	2.645	-512.09528	92.364746	-565.77075	-557.95477	102.47809	-532.23041	-412.79401	527.69763	-456.15799	-521.04797	506.83743	-462.34433	-368.20175	998.65204	-494.50479	-708.11847	1029.6726	-578.15869	-698.08649	587.74493	-381.19958	-791.97479	613.37317	-439.60803	-714.94855	178.72343	-563.37628	-823.80011	172.22253	-583.56006
532	2.65	-511.81226	92.35791	-565.96606	-557.78638	102.38791	-532.46228	-413.17673	527.86664	-457.31302	-521.30554	506.939	-463.50439	-369.50522	998.8476	-494.52545	-708.82764	1029.7363	-579.93225	-699.47687	587.13141	-383.71149	-793.29242	612.94049	-442.76578	-713.04602	180.03307	-570.83124	-821.797	173.37755	-591.96234
533	2.655	-511.47366	92.387024	-566.34528	-557.638	102.27592	-532.62726	-413.53403	528.04059	-458.36304	-521.60315	507.04193	-464.44788	-370.68793	998.9942	-494.57349	-709.54761	1029.7365	-581.66016	-700.80786	586.38605	-386.25336	-794.50806	612.34082	-446.06665	-711.10034	181.29727	-578.60046	-819.82599	174.38217	-600.4704
534	2.66	-511.30182	92.278076	-566.52295	-557.48444	102.2499	-532.81573	-413.88092	528.1944	-459.27579	-521.88373	507.13324	-465.33139	-371.89514	999.08563	-494.54022	-710.12109	1029.6393	-583.23401	-701.93744	585.11145	-390.07968	-795.89343	611.77905	-449.49191	-709.13287	182.35574	-586.22363	-817.56641	175.31412	-608.86536
535	2.665	-511.18701	92.149277	-566.60052	-557.34857	102.17747	-533.03857	-414.39203	528.35767	-460.07605	-522.20782	507.11609	-466.27426	-372.99814	999.17444	-494.57407	-710.76038	1029.589	-584.81805	-703.32892	584.29572	-392.388	-797.11536	610.90833	-453.05493	-707.1593	183.46962	-593.78625	-815.48621	176.2261	-617.4436
536	2.67	-511.04926	92.046783	-566.68152	-557.27997	102.08426	-533.24683	-414.9064	528.50092	-460.78156	-522.34979	507.271	-467.24173	-374.12045	999.18671	-494.56534	-711.38513	1029.4786	-586.31781	-704.31219	582.60632	-396.53683	-798.10309	609.92847	-456.75589	-705.1084	184.40044	-601.1416	-813.16333	176.98846	-625.92297
537	2.675	-510.91068	91.978111	-566.75195	-557.26233	102.06396	-533.38947	-415.44785	528.66425	-461.45245	-523.02698	507.22397	-468.03748	-375.20062	999.18414	-494.58945	-711.94879	1029.3059	-587.77289	-705.59558	581.3548	-399.73456	-799.22241	608.88409	-460.57367	-703.01483	185.26285	-608.48883	-811.06683	177.76624	-634.26831
538	2.68	-510.91016	91.816536	-566.76959	-557.15149	101.92902	-533.5462	-416.10712	528.79871	-461.9783	-523.50763	507.20764	-468.98782	-376.2312	999.14264	-494.60019	-712.43921	1029.0039	-589.17828	-706.93317	580.00391	-403.1441	-800.31256	607.71283	-464.57114	-701.00891	185.88754	-615.56018	-808.55591	178.3313	-642.75153
539	2.685	-510.79578	91.734993	-566.82831	-557.18201	101.85491	-533.6499	-416.84277	528.93097	-462.39478	-524.07263	507.01999	-470.20358	-377.19824	999.10638	-494.64001	-713.07794	1028.7523	-590.56232	-708.26746	578.48969	-406.75314	-801.32629	606.47638	-468.76678	-698.67578	186.47774	-622.77222	-806.10236	178.85597	-651.04852
540	2.69	-510.76907	91.634102	-566.83795	-557.18738	101.74533	-533.7301	-417.64014	529.04822	-462.76944	-524.6001	507.25336	-470.98416	-378.21713	999.04633	-494.68744	-714.04083	1028.4163	-592.10919	-709.56702	576.90863	-410.39966	-802.24054	605.19006	-473.06128	-696.60602	186.83356	-629.41852	-803.72223	179.39214	-659.32251
541	2.695	-510.80811	91.554382	-566.84998	-557.29022	101.65969	-533.82257	-418.50037	529.15741	-463.08179	-524.88934	506.90778	-473.3259	-379.16745	998.96466	-494.73111	-714.65167	1028.0574	-593.4314	-711.13342	575.35248	-413.8028	-802.98981	603.88593	-477.34766	-694.01849	187.28535	-636.72748	-800.97736	179.62233	-667.4201
542	2.7	-510.82599	91.492088	-566.85754	-557.31781	101.5695	-533.90363	-419.37442	529.27576	-463.384	-526.12305	507.30551	-472.74234	-380.18109	998.93103	-494.78531	-715.35144	1027.66	-594.76251	-712.48035	573.66168	-417.73962	-803.82953	602.58929	-481.83987	-691.71063	187.51428	-643.53491	-798.21893	179.87274	-675.31842
543	2.705	-510.89789	91.473976	-566.94208	-557.44446	101.46517	-533.91663	-420.22504	529.35211	-463.61432	-527.00885	507.35831	-473.58588	-381.21539	998.89343	-494.86096	-716.12421	1027.1716	-596.09613	-713.73053	571.99719	-421.81033	-804.44537	601.10181	-486.46695	-689.33142	187.63585	-650.20905	-795.76288	180.17215	-683.23602
544	2.71	-510.94366	91.447701	-566.91156	-557.59528	101.32181	-534.0614	-421.14929	529.46448	-463.80624	-527.7832	507.34668	-474.4017	-382.21686	998.90118	-494.99109	-716.77271	1026.6844	-597.25269	-714.83221	570.26031	-426.17163	-804.97894	599.67334	-491.21078	-686.92334	187.64774	-656.73468	-793.02814	180.27541	-691.10358
545	2.715	-510.94611	91.418922	-566.91095	-557.7171	101.26363	-533.99261	-422.1232	529.58746	-463.97287	-528.06262	507.25632	-476.1553	-383.29562	998.86786	-495.09805	-717.53394	1026.0963	-598.49921	-716.43335	568.68805	-430.564	-805.42255	598.20319	-496.09802	-684.58179	187.46286	-663.18292	-790.33832	180.30786	-698.771
546	2.72	-511.04504	91.38047	-566.90033	-557.83569	101.10104	-534.07288	-422.75555	529.74762	-464.10306	-529.38428	507.36438	-476.02759	-384.29553	998.87653	-495.29538	-718.26123	1025.4855	-599.70996	-717.57758	567.02106	-435.09763	-805.80737	596.61469	-501.14322	-682.12305	187.21992	-669.45612	-787.49194	180.04022	-706.20306
547	2.725	-511.07343	91.305016	-566.98047	-557.86096	101.04342	-534.22723	-423.74136	529.82867	-464.37561	-530.08167	507.35669	-476.70062	-385.40543	998.94745	-495.49316	-718.91913	1024.8628	-600.82092	-718.60675	565.29126	-439.58981	-806.02637	594.97968	-506.31357	-679.68304	186.83212	-675.71735	-784.68616	179.72781	-713.48578
548	2.73	-511.11728	91.261047	-566.97003	-557.18872	100.8339	-535.37927	-424.543	529.90192	-464.66412	-530.78033	507.34943	-477.31424	-386.5589	999.05261	-495.66791	-719.66156	1024.1414	-602.06616	-719.50256	563.6405	-444.37473	-806.2309	593.35187	-511.59769	-677.31256	186.29523	-681.66418	-782.11255	179.4265	-720.77209
549	2.735	-511.14886	91.215691	-566.97504	-558.12946	100.52846	-534.92297	-425.56256	529.88318	-464.6665	-531.4342	507.39963	-477.89719	-387.67554	999.15472	-495.92145	-720.39398	1023.4356	-603.34906	-720.32886	561.99109	-449.18835	-806.20117	591.60791	-517.00262	-674.89758	185.60416	-687.6427	-779.26044	178.63153	-727.54333
550	2.74	-511.12509	91.121414	-567.00262	-558.12372	100.58083	-534.83826	-426.091	530.00635	-464.95615	-531.98743	507.36624	-478.43329	-389.0679	999.09845	-496.06235	-721.05304	1022.7018	-604.62268	-721.00464	560.33636	-454.13593	-806.19543	589.84045	-522.50281	-672.52039	184.82362	-693.46466	-776.48572	177.79048	-734.28485
551	2.745	-511.16174	91.100029	-567.01636	-558.21722	100.47577	-535.02948	-426.69867	530.11432	-465.20993	-531.60559	506.96445	-480.61649	-390.11804	999.2547	-496.38373	-721.80896	1022.0352	-605.99011	-721.67017	558.65796	-459.08878	-806.07733	588.09888	-528.20575	-670.18402	183.83473	-699.18188	-773.83185	176.86076	-740.92126
552	2.75	-511.03693	91.042229	-567.07709	-558.15588	100.43797	-535.09906	-427.25137	530.22839	-465.4873	-532.94464	507.36267	-479.29495	-391.33575	999.44727	-496.7417	-722.63031	1021.4319	-607.37311	-722.11841	557.00391	-464.21875	-805.76709	586.39374	-534.09131	-667.91229	182.748	-704.73541	-771.16174	175.68385	-747.2514
553	2.755	-511.00272	91.029358	-567.1178	-558.1496	100.46043	-535.11359	-427.79102	530.3587	-465.70007	-533.08618	507.01535	-480.43784	-392.58832	999.59955	-497.01526	-723.31885	1020.7865	-608.80676	-722.46411	555.34247	-469.41135	-805.30853	584.60199	-539.94623	-665.57452	181.59869	-710.21277	-768.62671	174.4346	-753.4881
554	2.76	-511.01166	90.967804	-567.06818	-558.09784	100.3525	-535.24127	-428.22855	530.50452	-465.90741	-533.76813	507.41791	-479.76669	-393.83014	999.76801	-497.33716	-724.05914	1020.1129	-610.23792	-722.66449	553.61621	-474.73492	-804.78149	582.88129	-545.91534	-663.32416	180.22568	-715.60028	-766.14001	172.87073	-759.3103
555	2.765	-510.96262	90.970787	-567.11548	-558.08148	100.37247	-535.24866	-428.48007	530.71387	-465.99741	-533.70837	507.29764	-480.79758	-395.10153	999.91168	-497.72397	-724.89917	1019.5369	-611.68329	-722.71313	551.96252	-480.14026	-803.83063	581.09442	-552.04706	-661.1571	178.79329	-720.88318	-763.72589	171.34245	-765.15448
556	2.77	-510.92404	90.985504	-567.18982	-558.06219	100.36398	-535.30634	-429.08945	530.79852	-466.25848	-534.56793	507.7991	-479.55118	-396.35828	1000.0752	-498.0849	-725.61536	1018.8836	-613.06268	-722.24182	549.93134	-486.59177	-802.88605	579.35388	-558.15118	-658.86005	177.28194	-726.25067	-761.37677	169.38483	-770.50488
557	2.775	-510.93985	91.017944	-567.22333	-558.0542	100.23946	-535.41699	-429.5159	530.92865	-466.47351	-534.31897	506.80624	-481.70068	-397.72296	1000.2135	-498.50781	-726.45947	1018.3027	-614.54187	-721.74158	548.5415	-491.63031	-801.81732	577.76874	-564.26617	-656.92365	175.61703	-731.04901	-758.9892	167.31546	-775.76105
558	2.78	-510.90265	91.034035	-567.26758	-558.11786	100.17161	-535.42432	-429.94479	531.07587	-466.61737	-534.79956	507.36838	-480.88171	-399.00092	1000.3343	-498.90924	-727.26196	1017.712	-616.02582	-721.17035	547.02722	-496.95908	-800.47058	576.13287	-570.38574	-655.05988	173.7399	-735.67816	-756.78198	165.21146	-780.93378
559	2.785	-510.82498	91.151466	-567.28436	-558.07654	100.21255	-535.29785	-430.4039	531.19421	-466.72339	-535.17181	507.35623	-480.74036	-400.34473	1000.3991	-499.39841	-728.05115	1017.1204	-617.51208	-720.40118	545.53271	-502.70642	-799.45172	574.55737	-576.54877	-653.05981	171.86731	-740.23315	-754.53821	162.87489	-785.94427
560	2.79	-510.33246	91.450752	-567.63525	-558.08069	100.15829	-535.2406	-430.80124	531.323	-466.79031	-535.99182	507.53583	-479.63522	-401.63193	1000.4827	-499.90378	-728.91937	1016.4592	-618.98578	-719.4126	544.14368	-508.31003	-798.16205	573.00037	-582.89294	-651.24054	169.83807	-744.63477	-752.33429	160.48737	-790.53326
561	2.795	-510.10709	91.690735	-567.77313	-558.16449	100.10733	-535.26752	-431.23297	531.46362	-466.8096	-536.21527	507.47787	-479.60916	-402.98294	1000.5433	-500.54282	-729.8313	1015.8645	-620.59119	-718.38879	542.79846	-514.22662	-796.53455	571.48682	-589.05621	-649.30798	167.73428	-748.85931	-750.2149	157.82326	-794.98358
562	2.8	-509.85516	91.906494	-567.84308	-558.20514	100.05603	-535.23376	-431.6875	531.5954	-466.76401	-536.13953	507.63995	-479.70819	-404.27673	1000.5984	-501.08231	-730.7691	1015.2886	-622.09955	-717.38898	541.61847	-520.18036	-794.95953	570.26801	-595.22455	-647.80151	165.43719	-752.47089	-748.18951	154.9752	-799.19391
563	2.805	-509.37759	92.096519	-568.20276	-558.28839	100.02113	-535.2135	-432.16827	531.76855	-466.70496	-536.74567	507.01355	-480.80777	-405.66171	1000.6133	-501.94943	-731.73181	1014.6452	-623.66174	-715.91455	540.27289	-525.71014	-793.19427	568.99921	-601.3833	-646.24738	162.98732	-755.91901	-746.24463	152.13065	-803.12
